<?xml version="1.0" encoding="UTF-8"?><svg id="Calque_1" xmlns="http://www.w3.org/2000/svg" viewBox="0 0 4162.37 2417.78"><defs><style>.cls-1{fill:#fff;}</style></defs><path class="cls-1" d="M327.62,2355.15c-42.16,0-79.17-19.8-111-59.37-18.07-22.41-27.11-44.32-27.11-65.82,0-7.76.86-15.5,2.61-23.23,74.85-179.82,137.66-337.25,188.42-472.34-12.03-1.73-18.07-9.06-18.07-21.95,0-12.03,11.19-44.73,33.56-98.1,10.31-26.64,27.09-45.14,50.31-55.49,92.02-264.12,178.91-535.55,260.69-814.33-18.07-7.74-35.26-24.07-51.63-49.04-16.37-24.97-24.52-53.35-24.52-85.18l2.61-46.45c2.57-24.07,19.32-45.14,50.31-63.21,215.96-115.29,401.36-172.96,556.25-172.96,30.93,0,60.19,2.16,87.73,6.45,132.5,18.09,235.76,70.56,309.75,157.45,68.8,82.6,103.24,184.13,103.24,304.58,0,137.66-54.2,284.37-162.59,440.05-106.69,149.73-252.54,272.33-437.49,367.83-153.16,80.03-322.65,126.05-508.46,138.07-65.39,170.35-136.4,346.26-212.96,527.83-20.66,56.8-51.18,85.18-91.61,85.18l-.04.04ZM712.21,1535.66c114.43-18.93,221.96-57.21,322.65-114.84,148.83-82.6,264.98-183.25,348.44-302.01,73.09-104.1,110.1-204.75,111-301.99,0-129.05-64.11-203.89-192.3-224.54-17.21-2.57-35.71-3.88-55.49-3.88-62.82,0-138.97,17.23-228.43,51.63l-3.88,18.07c-90.36,292.54-191.03,585.06-301.99,877.58v-.02Z"/><path class="cls-1" d="M2390.01,1151.08c-12.49-6.86-20.86-10.74-25.16-11.62l-7.74-2.61c-5.18-.84-12.08-1.27-20.66-1.27-24.97,0-44.73,10.33-59.37,30.97-48.2,76.6-96.81,170.16-145.85,280.71-49.04,110.57-90.54,223.27-124.53,338.15-33.95,114.88-50.95,214.03-50.95,297.45,0,119.56,40,179.36,120.01,179.36,20.64,0,44.28-3.88,70.97-11.62,4.29-73.99,15.92-147.57,34.85-220.66,37.87-156.59,119.15-388.47,243.91-695.61,12.03-32.67,18.07-60.64,18.07-83.87,0-27.54-5.81-49.25-17.41-65.16-11.62-15.92-23.66-27.31-36.12-34.21h-.02Z"/><path class="cls-1" d="M2400.85,2262.22c-79.99,0-120.01-59.8-120.01-179.36,0-83.42,17-182.59,50.95-297.45,33.99-114.88,75.51-227.56,124.53-338.15,49.04-110.55,97.65-204.11,145.85-280.71,14.62-20.64,34.4-30.97,59.37-30.97,8.6,0,15.5.45,20.66,1.27l7.74,2.61c4.29.86,12.67,4.74,25.16,11.62,12.49,6.9,24.52,18.3,36.12,34.21s17.41,37.64,17.41,65.16c0,23.23-6.04,51.22-18.07,83.87-124.76,307.14-206.04,539.02-243.91,695.61-18.93,73.09-30.56,146.67-34.85,220.66-26.7,7.74-50.36,11.62-70.97,11.62h.02Z"/><path class="cls-1" d="M2725.96,2262.22c-79.99,0-120.01-59.8-120.01-179.36,0-83.42,17-182.59,50.95-297.45,33.99-114.88,75.51-227.56,124.53-338.15,49.04-110.55,97.65-204.11,145.85-280.71,14.62-20.64,34.4-30.97,59.37-30.97,8.6,0,15.5.45,20.66,1.27l7.74,2.61c4.29.86,12.67,4.74,25.16,11.62,12.49,6.9,24.52,18.3,36.12,34.21,11.6,15.92,17.41,37.64,17.41,65.16,0,23.23-6.04,51.22-18.07,83.87-124.76,307.14-206.04,539.02-243.91,695.61-18.93,73.09-30.56,146.67-34.85,220.66-26.7,7.74-50.36,11.62-70.97,11.62h.02Z"/><path class="cls-1" d="M4019.14,1313.7c0,47.34-17.64,101.1-52.92,161.33-70.56,119.58-270.61,284.33-600.11,494.25l60.64-1.27c84.32,0,166.92,6.04,247.79,18.07,23.23,2.61,43.87,8.85,61.94,18.73,18.07,9.88,27.11,30.29,27.11,61.28,0,23.23-7.76,49.9-23.23,80.03-15.46,30.07-40.85,45.14-76.11,45.14-105.82-13.76-197.05-20.64-273.61-20.64-100.67,0-176.35,5.81-227.11,17.41s-78.72,19.57-83.91,23.86l-33.54,2.57h.02c-25.79,0-45.18-12.9-58.08-38.69-18.93-30.13-28.4-58.53-28.4-85.18,0-23.23,12.08-45.59,36.12-67.09,78.28-61.94,163.9-126.05,256.83-192.3,117.86-84.3,226.48-167.54,325.85-249.7,99.36-82.15,167.13-158.93,203.25-230.36-19.8-2.57-42.16-3.88-67.09-3.88-60.23,0-122.15,5.18-185.81,15.5-55.06,6.04-114.45,11.17-178.11,15.46-23.23,0-43.02-11.62-59.37-34.85-16.37-23.23-24.52-48.16-24.52-74.83,0-55.92,33.1-85.62,99.38-89.05,105.82-6.04,195.73-14.21,269.72-24.54,64.5-10.31,121.29-15.46,170.35-15.46,58.47,0,108.6,14.42,150.33,43.23,41.71,28.81,62.59,72.49,62.59,130.98"/><path class="cls-1" d="M2039.08,920v-139.07l56.29,82.77c10.31,12.12,21.17,23.39,32.53,33.88,33.45-75.46,56.65-126.85,57.31-126.55,33.45-73.15,68.2-148.21,104.28-225.24,15.46-35.26,23.23-64.94,23.23-89.05,0-25.79-5.38-46.43-16.14-61.94-10.78-15.46-22.18-26.66-34.21-33.56-12.08-6.86-20.21-10.74-24.52-11.62l-3.88-1.27c-3.47-1.73-7.54-3.02-12.26-3.88-4.74-.84-10.1-1.27-16.14-1.27-23.23,0-42.14,9.92-56.76,29.68-40.44,56.8-109.71,181.52-207.77,374.23-98.1,192.71-196.37,412.33-294.88,658.83-98.51,246.5-167.99,478.6-208.44,696.24l-2.57,23.23c0,29.22,9.47,59.33,28.36,90.32,18.96,30.97,50.36,52.47,94.24,64.53,11.17,2.57,20.6,3.88,28.36,3.88,24.97,0,41.94-10.56,50.99-31.61,9.02-21.11,16.98-50.56,23.86-88.41,46.45-218.53,126.46-465.89,240.05-742.06,42.34-102.93,127.27-298.42,193.31-448.43-2.16-1.56-4.29-3.14-6.37-4.76-7-5.44-48.86-45.41-48.86-48.86Z"/><path class="cls-1" d="M3202.88,820.94c72.83-114.18,89.37-336.12,20.37-453.68-100.78-171.69-273.01-23.67-348.35,88.11-111.77,165.83-133.31,386.52-144.28,581.18,149.49-14.98,387.79-83.17,472.26-215.61ZM2786.97,1006.26c-10.44-7.38-11.65-13.52-11.56-25.8.75-103.77,40.71-301.17,105.57-383.7,11.87-15.1,48.11-51.49,65.66-55.09,75.76-15.56,146.46,130.64,148.75,193.91,5.17,143.01-199.64,223.91-308.42,270.68Z"/><path class="cls-1" d="M2524.1,547.73c-216.43-178.23-284.01,196.22-183.09,348.46,66.68,100.59,246.23,139.31,359.6,140.36-1.95-166.04-41.4-377.56-176.51-488.82ZM2575.91,706.4c69.32,82.56,85.18,203.51,94.56,307.52-148.76-38.95-303.77-112.31-214.48-293.41,35.4-71.79,70.22-73.3,119.92-14.11Z"/><path class="cls-1" d="M2941.05,1040.27c206.2-12.32,465.69,14.78,623.99-142.82v-161.62c-151.39,193.07-399.16,244.01-623.99,304.44Z"/><path class="cls-1" d="M2094.31,973.62c111.37,80.67,317.34,84.21,448.48,81.68-145.42-26.89-303.78-55.09-414.9-157.72-10.34,23.32-21.65,48.94-33.59,76.04Z"/></svg>