<?xml version="1.0" encoding="UTF-8"?><svg id="Calque_1" xmlns="http://www.w3.org/2000/svg" viewBox="0 0 1417.48 864.64"><defs><style>.cls-1{fill:#fff;}</style></defs><path class="cls-1" d="M211.77,600.12v178.09c-29.43-5.06-58.8-10.6-88.1-16.6v-466.31c64.61-3.91,129.58-7.15,194.78-9.7.17,0,.35,0,.52,0,24.65.57,45.9,11.55,51.92,14.07,111.3,45.58,118.91,240.43,11.08,292.9-3.35,1.63-9.4,4.42-16.57,7.3-17.08,6.88-35.39,9.65-53.85,8.33-33.33-2.38-66.59-5.07-99.78-8.08ZM211.77,522.69c61,3.18,153,24.86,155.65-70.68,2.72-99.37-92.08-86.02-155.65-84.18v154.86Z"/><path class="cls-1" d="M1254.65,447.04c-1.32,19.68-2.64,39.4-3.95,59.16-47.52,64.72-95.23,134.06-143.08,206.1,49.18-5.95,98.21-12.95,147.04-21v74.02c-90.33,18.71-181.36,32.88-272.74,42.53,1.33-19.33,2.67-38.64,4-57.93,48.06-76.09,96.02-150.53,143.83-221.33-44.22,2.32-88.57,4.29-133.01,5.91v-82.35c86.41-1.2,172.48-2.9,257.93-5.11Z"/><path class="cls-1" d="M701.96,454.27v368.95c-29.76.14-59.53-.2-89.28-1.02v-368.06c29.75.1,59.52.14,89.28.13Z"/><path class="cls-1" d="M820.97,453.88v366.25c-29.74,1.41-59.49,2.34-89.25,2.79v-368.69c29.76-.06,59.51-.17,89.25-.35Z"/><path class="cls-1" d="M937.31,452.89v359.3c-29.67,2.65-59.38,4.83-89.1,6.52v-365.01c29.73-.21,59.43-.48,89.1-.81Z"/><path class="cls-1" d="M504.39,376.88c5.99-15.49,11.66-30.18,16.84-43.57,13.98,14.59,29.45,26.59,45.94,36.62,0-31.68,0-63.37,0-95.05-29.74.39-59.47.93-89.16,1.61v538.75c29.7,2.26,59.42,4.03,89.16,5.34,0-137.47,0-274.94,0-412.41-23.79-7.09-45.55-17.15-62.78-31.29,0,0,0,0,0,0Z"/><path class="cls-1" d="M1060.17,294.77c36.31-61.16,44.55-177.86,10.16-246.07-50.22-100.85-136.4-29.18-174.18,33.61-56.02,91.37-66.85,218.92-72.35,330.57,75.06-8.83,194.3-47.94,236.37-118.11ZM852.07,395.49h0c-5.24-4.23-5.84-7.75-5.8-14.79.37-59.5,20.43-172.48,52.93-217.87,5.95-8.36,24.11-28.06,32.89-29.56,37.94-6.28,73.27,77.58,74.41,112.38,2.62,78.59-99.83,122.64-154.44,149.83Z"/><path class="cls-1" d="M720.13,129.97s0,0,0,0c-108.69-103.21-142.61,114.67-91.94,201.81,33.48,58.05,123.67,80.64,180.56,81.11-.98-95.41-20.77-217.72-88.61-282.92ZM746.14,222.01c34.81,48.09,42.76,117.91,47.47,177.86-74.68-22.54-152.54-65.06-107.69-169.94,17.78-41.59,35.26-42.38,60.22-7.92Z"/><path class="cls-1" d="M929.29,414.79c103.34-6.13,232.62,4.39,310.84-73.36v-81.4c-74.82,91.62-198.18,120.79-310.84,154.76Z"/><path class="cls-1" d="M567.17,408.17c53.3,15.92,116.81,16.71,162.34,15.64-54.71-11.6-113.08-23.88-162.34-53.87,0,12.75,0,25.49,0,38.24Z"/></svg>