<?xml version="1.0" encoding="UTF-8"?><svg id="Calque_1" xmlns="http://www.w3.org/2000/svg" viewBox="0 0 1759.33 1059.59"><defs><style>.cls-1{fill:#1d1d1b;}</style></defs><path class="cls-1" d="M108.69,1017.97c-20.53,0-38.55-9.64-54.05-28.91-8.8-10.91-13.2-21.58-13.2-32.05,0-3.78.42-7.55,1.27-11.31,36.45-87.56,67.03-164.22,91.75-230-5.86-.84-8.8-4.41-8.8-10.69,0-5.86,5.45-21.78,16.34-47.77,5.02-12.97,13.19-21.98,24.5-27.02,44.81-128.61,87.12-260.78,126.94-396.53-8.8-3.77-17.17-11.72-25.14-23.88s-11.94-25.98-11.94-41.48l1.27-22.62c1.25-11.72,9.41-21.98,24.5-30.78,105.16-56.14,195.44-84.22,270.86-84.22,15.06,0,29.31,1.05,42.72,3.14,64.52,8.81,114.8,34.36,150.83,76.67,33.5,40.22,50.27,89.66,50.27,148.31,0,67.03-26.39,138.47-79.17,214.28-51.95,72.91-122.97,132.61-213.03,179.11-74.58,38.97-157.11,61.38-247.59,67.23-31.84,82.95-66.42,168.61-103.7,257.02-10.06,27.66-24.92,41.48-44.61,41.48ZM295.96,618.92c55.72-9.22,108.08-27.86,157.11-55.92,72.47-40.22,129.03-89.23,169.67-147.06,35.59-50.69,53.61-99.7,54.05-147.05,0-62.84-31.22-99.28-93.64-109.34-8.38-1.25-17.39-1.89-27.02-1.89-30.59,0-67.67,8.39-111.23,25.14l-1.89,8.8c-44,142.45-93.02,284.89-147.05,427.33Z"/><path class="cls-1" d="M994.19,431.66c-6.08-3.34-10.16-5.23-12.25-5.66l-3.77-1.27c-2.52-.41-5.88-.62-10.06-.62-12.16,0-21.78,5.03-28.91,15.08-23.47,37.3-47.14,82.86-71.02,136.69-23.88,53.84-44.09,108.72-60.64,164.66-16.53,55.94-24.81,104.22-24.81,144.84,0,58.22,19.48,87.34,58.44,87.34,10.05,0,21.56-1.89,34.56-5.66,2.09-36.03,7.75-71.86,16.97-107.45,18.44-76.25,58.02-189.16,118.77-338.72,5.86-15.91,8.8-29.53,8.8-40.84,0-13.41-2.83-23.98-8.48-31.73-5.66-7.75-11.52-13.3-17.59-16.66Z"/><path class="cls-1" d="M999.48,972.72c-38.95,0-58.44-29.12-58.44-87.34,0-40.62,8.28-88.91,24.81-144.84,16.55-55.94,36.77-110.81,60.64-164.66,23.88-53.83,47.55-99.39,71.02-136.69,7.12-10.05,16.75-15.08,28.91-15.08,4.19,0,7.55.22,10.06.62l3.77,1.27c2.09.42,6.17,2.31,12.25,5.66,6.08,3.36,11.94,8.91,17.59,16.66s8.48,18.33,8.48,31.73c0,11.31-2.94,24.94-8.8,40.84-60.75,149.56-100.33,262.47-118.77,338.72-9.22,35.59-14.88,71.42-16.97,107.45-13,3.77-24.52,5.66-34.56,5.66Z"/><path class="cls-1" d="M1157.78,972.72c-38.95,0-58.44-29.12-58.44-87.34,0-40.62,8.28-88.91,24.81-144.84,16.55-55.94,36.77-110.81,60.64-164.66,23.88-53.83,47.55-99.39,71.02-136.69,7.12-10.05,16.75-15.08,28.91-15.08,4.19,0,7.55.22,10.06.62l3.77,1.27c2.09.42,6.17,2.31,12.25,5.66,6.08,3.36,11.94,8.91,17.59,16.66s8.48,18.33,8.48,31.73c0,11.31-2.94,24.94-8.8,40.84-60.75,149.56-100.33,262.47-118.77,338.72-9.22,35.59-14.88,71.42-16.97,107.45-13,3.77-24.52,5.66-34.56,5.66Z"/><path class="cls-1" d="M1263.3,949.47c-12.56,0-22-6.28-28.28-18.84-9.22-14.67-13.83-28.5-13.83-41.48,0-11.31,5.88-22.2,17.59-32.67,38.12-30.16,79.81-61.38,125.06-93.64,57.39-41.05,110.28-81.58,158.67-121.59,48.38-40,81.38-77.39,98.97-112.17-9.64-1.25-20.53-1.89-32.67-1.89-29.33,0-59.48,2.52-90.48,7.55-26.81,2.94-55.73,5.44-86.73,7.53-11.31,0-20.95-5.66-28.91-16.97-7.97-11.31-11.94-23.45-11.94-36.44,0-27.23,16.12-41.69,48.39-43.36,51.53-2.94,95.31-6.92,131.34-11.95,31.41-5.02,59.06-7.53,82.95-7.53,28.47,0,52.88,7.02,73.2,21.05,20.31,14.03,30.48,35.3,30.48,63.78,0,23.05-8.59,49.23-25.77,78.56-34.36,58.23-131.77,138.45-292.22,240.67l29.53-.62c41.06,0,81.28,2.94,120.66,8.8,11.31,1.27,21.36,4.31,30.16,9.12s13.2,14.75,13.2,29.84c0,11.31-3.78,24.3-11.31,38.97-7.53,14.64-19.89,21.98-37.06,21.98-51.53-6.7-95.95-10.05-133.23-10.05-49.02,0-85.87,2.83-110.59,8.48s-38.33,9.53-40.86,11.62l-16.33,1.25Z"/><path d="M894.95,201.98l72.98,43.29c.96.45,1.93.89,2.9,1.33,16.29-35.62,33.21-72.17,50.78-109.68,7.53-17.17,11.31-31.62,11.31-43.36,0-12.56-2.62-22.61-7.86-30.16-5.25-7.53-10.8-12.98-16.66-16.34-5.88-3.34-9.84-5.23-11.94-5.66l-1.89-.62c-1.69-.84-3.67-1.47-5.97-1.89-2.31-.41-4.92-.62-7.86-.62-11.31,0-20.52,4.83-27.64,14.45-19.69,27.66-53.42,88.39-101.17,182.23-47.77,93.84-95.62,200.78-143.59,320.81s-81.8,233.05-101.5,339.03l-1.25,11.31c0,14.23,4.61,28.89,13.81,43.98,9.23,15.08,24.52,25.55,45.89,31.42,5.44,1.25,10.03,1.89,13.81,1.89,12.16,0,20.42-5.14,24.83-15.39,4.39-10.28,8.27-24.62,11.62-43.05,22.62-106.41,61.58-226.86,116.89-361.34,36.4-88.48,78.55-185.44,126.45-290.85-23.15-20.92-44.64-44.69-63.94-70.8Z"/><path d="M1457.69,187.97c-136,109.81-330.74,130.79-486.87,58.63-4.02,8.78-7.99,17.5-11.93,26.17,81.97,74.08,184.81,112.43,285.26,91.94,102.52-20.91,193.09-102.36,247.99-206.99-1.73-1.64-30.34,26.93-34.45,30.25Z"/></svg>