<?xml version="1.0" encoding="UTF-8"?><svg id="Calque_1" xmlns="http://www.w3.org/2000/svg" viewBox="0 0 1284.74 924.44"><path d="M177.85,641.45v178.09c-29.43-5.06-58.8-10.6-88.1-16.6v-466.31c64.61-3.91,129.58-7.15,194.78-9.7.17,0,.34,0,.52,0,24.65.57,45.9,11.55,51.92,14.07,111.3,45.58,118.92,240.43,11.08,292.9-3.35,1.63-9.4,4.42-16.57,7.3-17.08,6.88-35.39,9.65-53.85,8.33-33.33-2.38-66.59-5.07-99.78-8.08ZM177.85,564.02c61,3.18,153,24.86,155.65-70.68,2.71-99.37-92.08-86.02-155.65-84.18v154.86Z"/><path d="M1220.74,488.36c-1.32,19.68-2.64,39.4-3.95,59.16-47.52,64.72-95.23,134.06-143.08,206.1,49.18-5.95,98.21-12.94,147.04-21v74.02c-90.33,18.71-181.36,32.88-272.74,42.53,1.33-19.33,2.67-38.64,4-57.93,48.06-76.09,96.02-150.53,143.83-221.33-44.22,2.32-88.57,4.3-133.01,5.91v-82.35c86.41-1.2,172.48-2.9,257.92-5.11Z"/><path d="M668.04,495.59v368.95c-29.76.14-59.53-.2-89.28-1.02v-368.06c29.75.1,59.52.14,89.28.13Z"/><path d="M787.06,495.21v366.25c-29.74,1.41-59.49,2.34-89.25,2.79v-368.69c29.76-.06,59.51-.17,89.25-.35Z"/><path d="M903.4,494.22v359.3c-29.67,2.65-59.38,4.83-89.1,6.52,0-121.67,0-243.34,0-365.01,29.73-.21,59.43-.48,89.1-.81Z"/><path d="M470.48,418.21c5.99-15.49,11.66-30.18,16.84-43.57,13.98,14.59,29.45,26.59,45.94,36.62v-95.05c-29.74.39-59.47.93-89.16,1.61,0,179.58,0,359.17,0,538.75,29.7,2.26,59.42,4.03,89.16,5.34v-412.41c-23.79-7.09-45.55-17.15-62.78-31.29,0,0,0,0,0,0Z"/><path d="M1026.26,336.1c36.31-61.16,44.55-177.86,10.16-246.07-50.22-100.85-136.4-29.18-174.18,33.61-56.02,91.37-66.85,218.92-72.35,330.57,75.06-8.83,194.3-47.94,236.37-118.11ZM818.16,436.82h0c-5.24-4.23-5.84-7.75-5.8-14.79.37-59.5,20.42-172.48,52.93-217.87,5.95-8.36,24.1-28.06,32.89-29.56,37.94-6.28,73.27,77.58,74.41,112.38,2.62,78.59-99.83,122.64-154.44,149.83Z"/><path d="M686.21,171.3h0c-108.69-103.21-142.61,114.67-91.94,201.81,33.47,58.05,123.67,80.64,180.56,81.11-.98-95.41-20.77-217.72-88.61-282.92ZM712.23,263.33c34.81,48.09,42.76,117.91,47.47,177.86-74.67-22.54-152.54-65.06-107.69-169.94,17.78-41.59,35.27-42.38,60.22-7.92Z"/><path d="M895.38,456.11c103.33-6.13,232.62,4.39,310.84-73.36v-81.4c-74.82,91.62-198.18,120.79-310.84,154.76Z"/><path d="M533.26,449.5c53.3,15.92,116.81,16.71,162.34,15.64-54.71-11.6-113.08-23.88-162.34-53.87v38.24Z"/></svg>