<?xml version="1.0" encoding="UTF-8"?>
<svg id="Calque_1" xmlns="http://www.w3.org/2000/svg" version="1.1" viewBox="0 0 1223.11 803.56">
  <!-- Generator: Adobe Illustrator 29.7.1, SVG Export Plug-In . SVG Version: 2.1.1 Build 8)  -->
  <defs>
    <style>
      .st0 {
        fill: #fff;
      }
    </style>
  </defs>
  <path class="st0" d="M127.09,590.35v175.58H35.49v-480.93h202.03c.18,0,.36,0,.53.02,25.46,1.48,47.37,12.35,53.58,14.84,114.64,45.88,122.45,218.01,11.42,271.8-3.46,1.67-9.69,4.56-17.08,7.63-17.62,7.32-36.51,11.07-55.59,11.07h-103.29ZM127.09,514.01c63.34-.14,158.25,16.12,160.96-72.46,2.82-92.08-94.95-81.12-160.96-80.21v152.68Z"/>
  <polygon class="st0" points="1201.94 441.49 1197.81 502.27 1049.26 693.41 1201.94 693.41 1201.94 769.75 919.48 769.75 923.6 716.6 1072.16 517.83 934.75 517.83 934.75 441.49 1201.94 441.49"/>
  <rect class="st0" x="540.23" y="441.49" width="91.61" height="328.25"/>
  <rect class="st0" x="662.37" y="441.49" width="91.61" height="328.25"/>
  <rect class="st0" x="781.95" y="441.49" width="91.61" height="328.25"/>
  <g>
    <path class="st0" d="M429.04,372.32c6.15-13.96,11.98-27.16,17.31-39.18,14.36,13.26,30.25,24.11,47.18,33.14v-85.1h-91.61v488.56h91.61v-369.23c-24.42-6.33-46.78-15.37-64.48-28.2h0Z"/>
    <path class="st0" d="M1000.21,293.66c37.52-58.83,46.05-173.18,10.5-233.75-51.92-88.46-140.66-12.2-179.48,45.4-57.59,85.44-68.69,199.15-74.34,299.44,77.02-7.72,199.8-42.85,243.32-111.09ZM785.92,389.14h0c-5.38-3.8-6-6.97-5.96-13.29.39-53.47,20.97-155.17,54.39-197.69,6.12-7.78,24.79-26.53,33.83-28.38,39.03-8.02,75.46,67.31,76.64,99.91,2.66,73.68-102.86,115.37-158.91,139.46Z"/>
    <path class="st0" d="M650.48,152.89h0c-111.51-91.83-146.33,101.1-94.33,179.54,34.36,51.83,126.87,71.78,185.28,72.32-1-85.55-21.33-194.53-90.94-251.85ZM677.18,234.64c35.72,42.54,43.89,104.85,48.72,158.44-76.65-20.07-156.51-57.87-110.51-151.17,18.24-36.99,36.18-37.77,61.79-7.27Z"/>
    <path class="st0" d="M865.31,406.66c106.24-6.35,239.94,7.62,321.5-73.59v-83.27c-78,99.48-205.66,125.72-321.5,156.86Z"/>
    <path class="st0" d="M493.52,400.52c54.73,14.19,119.87,14.79,166.59,13.89-56.13-10.38-116.01-21.14-166.59-48.12v34.23Z"/>
  </g>
</svg>